<mxfile host="app.diagrams.net" modified="2024-03-07T00:10:14.496Z" agent="Mozilla/5.0 (Windows NT 10.0; Win64; x64) AppleWebKit/537.36 (KHTML, like Gecko) Chrome/122.0.0.0 Safari/537.36" etag="o8Vi3CygWE7yjlVswMOK" version="24.0.2" type="device">
  <diagram name="Página-1" id="RTMg8oHHeeSZe0mHpt-8">
    <mxGraphModel dx="1434" dy="780" grid="0" gridSize="10" guides="1" tooltips="1" connect="1" arrows="1" fold="1" page="1" pageScale="1" pageWidth="827" pageHeight="1169" background="none" math="0" shadow="0">
      <root>
        <mxCell id="0" />
        <mxCell id="1" parent="0" />
        <mxCell id="x5Ubl2-uREqJNJWsfz0u-1" value="Conta" style="swimlane;fontStyle=1;align=center;verticalAlign=middle;childLayout=stackLayout;horizontal=1;startSize=29;horizontalStack=0;resizeParent=1;resizeParentMax=0;resizeLast=0;collapsible=0;marginBottom=0;html=1;whiteSpace=wrap;" vertex="1" parent="1">
          <mxGeometry x="44" y="26" width="140" height="122" as="geometry" />
        </mxCell>
        <mxCell id="x5Ubl2-uREqJNJWsfz0u-2" value="&lt;div&gt;Número&lt;/div&gt;Saldo&lt;div&gt;Limite&lt;/div&gt;&lt;div&gt;Extrato&lt;/div&gt;&lt;div&gt;Tipo de conta&lt;/div&gt;&lt;div&gt;banco&lt;/div&gt;" style="text;html=1;strokeColor=none;fillColor=none;align=center;verticalAlign=middle;spacingLeft=4;spacingRight=4;overflow=hidden;rotatable=0;points=[[0,0.5],[1,0.5]];portConstraint=eastwest;whiteSpace=wrap;" vertex="1" parent="x5Ubl2-uREqJNJWsfz0u-1">
          <mxGeometry y="29" width="140" height="93" as="geometry" />
        </mxCell>
        <mxCell id="x5Ubl2-uREqJNJWsfz0u-4" value="cartão" style="swimlane;fontStyle=1;align=center;verticalAlign=middle;childLayout=stackLayout;horizontal=1;startSize=29;horizontalStack=0;resizeParent=1;resizeParentMax=0;resizeLast=0;collapsible=0;marginBottom=0;html=1;whiteSpace=wrap;" vertex="1" parent="1">
          <mxGeometry x="220" y="24" width="140" height="79" as="geometry" />
        </mxCell>
        <mxCell id="x5Ubl2-uREqJNJWsfz0u-5" value="Fatura" style="text;html=1;strokeColor=none;fillColor=none;align=center;verticalAlign=middle;spacingLeft=4;spacingRight=4;overflow=hidden;rotatable=0;points=[[0,0.5],[1,0.5]];portConstraint=eastwest;whiteSpace=wrap;" vertex="1" parent="x5Ubl2-uREqJNJWsfz0u-4">
          <mxGeometry y="29" width="140" height="25" as="geometry" />
        </mxCell>
        <mxCell id="x5Ubl2-uREqJNJWsfz0u-6" value="stereotype property 1" style="text;html=1;strokeColor=none;fillColor=none;align=left;verticalAlign=middle;spacingLeft=4;spacingRight=4;overflow=hidden;rotatable=0;points=[[0,0.5],[1,0.5]];portConstraint=eastwest;whiteSpace=wrap;" vertex="1" parent="x5Ubl2-uREqJNJWsfz0u-4">
          <mxGeometry y="54" width="140" height="25" as="geometry" />
        </mxCell>
        <mxCell id="x5Ubl2-uREqJNJWsfz0u-7" value="Transações" style="swimlane;fontStyle=1;align=center;verticalAlign=middle;childLayout=stackLayout;horizontal=1;startSize=29;horizontalStack=0;resizeParent=1;resizeParentMax=0;resizeLast=0;collapsible=0;marginBottom=0;html=1;whiteSpace=wrap;" vertex="1" parent="1">
          <mxGeometry x="384" y="21" width="140" height="97" as="geometry" />
        </mxCell>
        <mxCell id="x5Ubl2-uREqJNJWsfz0u-8" value="&lt;div&gt;tipo(pix/ted)&lt;/div&gt;&lt;div&gt;Receber&lt;/div&gt;&lt;div&gt;enviar&lt;/div&gt;&lt;div&gt;&lt;br&gt;&lt;/div&gt;&lt;div&gt;&lt;br&gt;&lt;/div&gt;&lt;div&gt;&lt;br&gt;&lt;/div&gt;" style="text;html=1;strokeColor=none;fillColor=none;align=center;verticalAlign=middle;spacingLeft=4;spacingRight=4;overflow=hidden;rotatable=0;points=[[0,0.5],[1,0.5]];portConstraint=eastwest;whiteSpace=wrap;" vertex="1" parent="x5Ubl2-uREqJNJWsfz0u-7">
          <mxGeometry y="29" width="140" height="68" as="geometry" />
        </mxCell>
        <mxCell id="x5Ubl2-uREqJNJWsfz0u-10" value="Conta" style="swimlane;fontStyle=1;align=center;verticalAlign=top;childLayout=stackLayout;horizontal=1;startSize=26;horizontalStack=0;resizeParent=1;resizeParentMax=0;resizeLast=0;collapsible=1;marginBottom=0;whiteSpace=wrap;html=1;fillColor=#dae8fc;gradientColor=#7ea6e0;strokeColor=#6c8ebf;" vertex="1" parent="1">
          <mxGeometry x="263" y="201" width="192" height="317" as="geometry" />
        </mxCell>
        <mxCell id="x5Ubl2-uREqJNJWsfz0u-11" value="- Numero : Integer&lt;div&gt;&lt;span style=&quot;background-color: initial;&quot;&gt;&lt;br&gt;&lt;/span&gt;&lt;/div&gt;&lt;div&gt;&lt;span style=&quot;background-color: initial;&quot;&gt;-Saldo: Double&lt;/span&gt;&lt;br&gt;&lt;/div&gt;&lt;div&gt;&lt;br&gt;&lt;/div&gt;&lt;div&gt;- Limite : Double&lt;/div&gt;&lt;div&gt;&lt;br&gt;&lt;/div&gt;&lt;div&gt;-Extrato : List&amp;lt;Transações&amp;gt;&lt;/div&gt;&lt;div&gt;&lt;br&gt;&lt;/div&gt;&lt;div&gt;- Banco : String&lt;/div&gt;&lt;div&gt;&lt;br&gt;&lt;/div&gt;&lt;div&gt;&lt;br&gt;&lt;/div&gt;" style="text;strokeColor=#666666;fillColor=#f5f5f5;align=left;verticalAlign=top;spacingLeft=4;spacingRight=4;overflow=hidden;rotatable=0;points=[[0,0.5],[1,0.5]];portConstraint=eastwest;whiteSpace=wrap;html=1;gradientColor=#b3b3b3;" vertex="1" parent="x5Ubl2-uREqJNJWsfz0u-10">
          <mxGeometry y="26" width="192" height="141" as="geometry" />
        </mxCell>
        <mxCell id="x5Ubl2-uREqJNJWsfz0u-13" value="&lt;div&gt;&lt;br&gt;&lt;/div&gt;&lt;div&gt;+ gerarNumero():Integer&lt;/div&gt;&lt;div&gt;&lt;br&gt;&lt;/div&gt;&lt;div&gt;+ registrarTransacao():Void&lt;/div&gt;&lt;div&gt;&lt;br&gt;&lt;/div&gt;&lt;div&gt;+ verSaldo(): void&lt;/div&gt;" style="text;strokeColor=#666666;fillColor=#f5f5f5;align=left;verticalAlign=top;spacingLeft=4;spacingRight=4;overflow=hidden;rotatable=0;points=[[0,0.5],[1,0.5]];portConstraint=eastwest;whiteSpace=wrap;html=1;gradientColor=#b3b3b3;" vertex="1" parent="x5Ubl2-uREqJNJWsfz0u-10">
          <mxGeometry y="167" width="192" height="150" as="geometry" />
        </mxCell>
        <mxCell id="x5Ubl2-uREqJNJWsfz0u-53" value="" style="edgeStyle=orthogonalEdgeStyle;rounded=0;orthogonalLoop=1;jettySize=auto;html=1;entryX=-0.026;entryY=0.713;entryDx=0;entryDy=0;entryPerimeter=0;" edge="1" parent="1" source="x5Ubl2-uREqJNJWsfz0u-20" target="x5Ubl2-uREqJNJWsfz0u-13">
          <mxGeometry relative="1" as="geometry">
            <mxPoint x="135" y="535" as="targetPoint" />
            <Array as="points">
              <mxPoint x="135" y="582" />
              <mxPoint x="136" y="582" />
              <mxPoint x="136" y="475" />
            </Array>
          </mxGeometry>
        </mxCell>
        <mxCell id="x5Ubl2-uREqJNJWsfz0u-20" value="Conta Corrente" style="swimlane;fontStyle=1;align=center;verticalAlign=top;childLayout=stackLayout;horizontal=1;startSize=26;horizontalStack=0;resizeParent=1;resizeParentMax=0;resizeLast=0;collapsible=1;marginBottom=0;whiteSpace=wrap;html=1;fillColor=#dae8fc;gradientColor=#7ea6e0;strokeColor=#6c8ebf;" vertex="1" parent="1">
          <mxGeometry x="55" y="628" width="160" height="86" as="geometry" />
        </mxCell>
        <mxCell id="x5Ubl2-uREqJNJWsfz0u-21" value="+ field: type" style="text;strokeColor=#666666;fillColor=#f5f5f5;align=left;verticalAlign=top;spacingLeft=4;spacingRight=4;overflow=hidden;rotatable=0;points=[[0,0.5],[1,0.5]];portConstraint=eastwest;whiteSpace=wrap;html=1;gradientColor=#b3b3b3;" vertex="1" parent="x5Ubl2-uREqJNJWsfz0u-20">
          <mxGeometry y="26" width="160" height="26" as="geometry" />
        </mxCell>
        <mxCell id="x5Ubl2-uREqJNJWsfz0u-22" value="" style="line;strokeWidth=1;fillColor=none;align=left;verticalAlign=middle;spacingTop=-1;spacingLeft=3;spacingRight=3;rotatable=0;labelPosition=right;points=[];portConstraint=eastwest;strokeColor=inherit;" vertex="1" parent="x5Ubl2-uREqJNJWsfz0u-20">
          <mxGeometry y="52" width="160" height="8" as="geometry" />
        </mxCell>
        <mxCell id="x5Ubl2-uREqJNJWsfz0u-23" value="+ method(type): type" style="text;strokeColor=#666666;fillColor=#f5f5f5;align=left;verticalAlign=top;spacingLeft=4;spacingRight=4;overflow=hidden;rotatable=0;points=[[0,0.5],[1,0.5]];portConstraint=eastwest;whiteSpace=wrap;html=1;gradientColor=#b3b3b3;" vertex="1" parent="x5Ubl2-uREqJNJWsfz0u-20">
          <mxGeometry y="60" width="160" height="26" as="geometry" />
        </mxCell>
        <mxCell id="x5Ubl2-uREqJNJWsfz0u-56" value="" style="edgeStyle=orthogonalEdgeStyle;rounded=0;orthogonalLoop=1;jettySize=auto;html=1;" edge="1" parent="1" source="x5Ubl2-uREqJNJWsfz0u-24" target="x5Ubl2-uREqJNJWsfz0u-13">
          <mxGeometry relative="1" as="geometry">
            <Array as="points">
              <mxPoint x="359" y="565" />
              <mxPoint x="359" y="565" />
            </Array>
          </mxGeometry>
        </mxCell>
        <mxCell id="x5Ubl2-uREqJNJWsfz0u-24" value="Conta poupança" style="swimlane;fontStyle=1;align=center;verticalAlign=top;childLayout=stackLayout;horizontal=1;startSize=26;horizontalStack=0;resizeParent=1;resizeParentMax=0;resizeLast=0;collapsible=1;marginBottom=0;whiteSpace=wrap;html=1;fillColor=#dae8fc;gradientColor=#7ea6e0;strokeColor=#6c8ebf;" vertex="1" parent="1">
          <mxGeometry x="279" y="628" width="160" height="86" as="geometry" />
        </mxCell>
        <mxCell id="x5Ubl2-uREqJNJWsfz0u-25" value="+ field: type" style="text;strokeColor=#666666;fillColor=#f5f5f5;align=left;verticalAlign=top;spacingLeft=4;spacingRight=4;overflow=hidden;rotatable=0;points=[[0,0.5],[1,0.5]];portConstraint=eastwest;whiteSpace=wrap;html=1;gradientColor=#b3b3b3;" vertex="1" parent="x5Ubl2-uREqJNJWsfz0u-24">
          <mxGeometry y="26" width="160" height="26" as="geometry" />
        </mxCell>
        <mxCell id="x5Ubl2-uREqJNJWsfz0u-26" value="" style="line;strokeWidth=1;fillColor=none;align=left;verticalAlign=middle;spacingTop=-1;spacingLeft=3;spacingRight=3;rotatable=0;labelPosition=right;points=[];portConstraint=eastwest;strokeColor=inherit;" vertex="1" parent="x5Ubl2-uREqJNJWsfz0u-24">
          <mxGeometry y="52" width="160" height="8" as="geometry" />
        </mxCell>
        <mxCell id="x5Ubl2-uREqJNJWsfz0u-27" value="+ method(type): type" style="text;strokeColor=#666666;fillColor=#f5f5f5;align=left;verticalAlign=top;spacingLeft=4;spacingRight=4;overflow=hidden;rotatable=0;points=[[0,0.5],[1,0.5]];portConstraint=eastwest;whiteSpace=wrap;html=1;gradientColor=#b3b3b3;" vertex="1" parent="x5Ubl2-uREqJNJWsfz0u-24">
          <mxGeometry y="60" width="160" height="26" as="geometry" />
        </mxCell>
        <mxCell id="x5Ubl2-uREqJNJWsfz0u-55" value="" style="edgeStyle=orthogonalEdgeStyle;rounded=0;orthogonalLoop=1;jettySize=auto;html=1;" edge="1" parent="1" source="x5Ubl2-uREqJNJWsfz0u-28">
          <mxGeometry relative="1" as="geometry">
            <mxPoint x="460" y="474" as="targetPoint" />
            <Array as="points">
              <mxPoint x="584" y="582" />
              <mxPoint x="585" y="582" />
            </Array>
          </mxGeometry>
        </mxCell>
        <mxCell id="x5Ubl2-uREqJNJWsfz0u-28" value="Conta Investimento" style="swimlane;fontStyle=1;align=center;verticalAlign=top;childLayout=stackLayout;horizontal=1;startSize=26;horizontalStack=0;resizeParent=1;resizeParentMax=0;resizeLast=0;collapsible=1;marginBottom=0;whiteSpace=wrap;html=1;fillColor=#dae8fc;gradientColor=#7ea6e0;strokeColor=#6c8ebf;" vertex="1" parent="1">
          <mxGeometry x="504" y="628" width="160" height="86" as="geometry" />
        </mxCell>
        <mxCell id="x5Ubl2-uREqJNJWsfz0u-29" value="+ field: type" style="text;strokeColor=#666666;fillColor=#f5f5f5;align=left;verticalAlign=top;spacingLeft=4;spacingRight=4;overflow=hidden;rotatable=0;points=[[0,0.5],[1,0.5]];portConstraint=eastwest;whiteSpace=wrap;html=1;gradientColor=#b3b3b3;" vertex="1" parent="x5Ubl2-uREqJNJWsfz0u-28">
          <mxGeometry y="26" width="160" height="26" as="geometry" />
        </mxCell>
        <mxCell id="x5Ubl2-uREqJNJWsfz0u-30" value="" style="line;strokeWidth=1;fillColor=none;align=left;verticalAlign=middle;spacingTop=-1;spacingLeft=3;spacingRight=3;rotatable=0;labelPosition=right;points=[];portConstraint=eastwest;strokeColor=inherit;" vertex="1" parent="x5Ubl2-uREqJNJWsfz0u-28">
          <mxGeometry y="52" width="160" height="8" as="geometry" />
        </mxCell>
        <mxCell id="x5Ubl2-uREqJNJWsfz0u-31" value="+ method(type): type" style="text;strokeColor=#666666;fillColor=#f5f5f5;align=left;verticalAlign=top;spacingLeft=4;spacingRight=4;overflow=hidden;rotatable=0;points=[[0,0.5],[1,0.5]];portConstraint=eastwest;whiteSpace=wrap;html=1;gradientColor=#b3b3b3;" vertex="1" parent="x5Ubl2-uREqJNJWsfz0u-28">
          <mxGeometry y="60" width="160" height="26" as="geometry" />
        </mxCell>
        <mxCell id="x5Ubl2-uREqJNJWsfz0u-32" value="Transação" style="swimlane;fontStyle=1;align=center;verticalAlign=top;childLayout=stackLayout;horizontal=1;startSize=26;horizontalStack=0;resizeParent=1;resizeParentMax=0;resizeLast=0;collapsible=1;marginBottom=0;whiteSpace=wrap;html=1;fillColor=#dae8fc;gradientColor=#7ea6e0;strokeColor=#6c8ebf;" vertex="1" parent="1">
          <mxGeometry x="520" y="201" width="259" height="77" as="geometry" />
        </mxCell>
        <mxCell id="x5Ubl2-uREqJNJWsfz0u-33" value="- Tipo : Integer&lt;div&gt;- contaDe : Conta&lt;/div&gt;&lt;div&gt;-contaPara: Conta&lt;/div&gt;" style="text;strokeColor=#666666;fillColor=#f5f5f5;align=left;verticalAlign=top;spacingLeft=4;spacingRight=4;overflow=hidden;rotatable=0;points=[[0,0.5],[1,0.5]];portConstraint=eastwest;whiteSpace=wrap;html=1;gradientColor=#b3b3b3;" vertex="1" parent="x5Ubl2-uREqJNJWsfz0u-32">
          <mxGeometry y="26" width="259" height="49" as="geometry" />
        </mxCell>
        <mxCell id="x5Ubl2-uREqJNJWsfz0u-34" value="" style="line;strokeWidth=1;fillColor=none;align=left;verticalAlign=middle;spacingTop=-1;spacingLeft=3;spacingRight=3;rotatable=0;labelPosition=right;points=[];portConstraint=eastwest;strokeColor=inherit;" vertex="1" parent="x5Ubl2-uREqJNJWsfz0u-32">
          <mxGeometry y="75" width="259" height="2" as="geometry" />
        </mxCell>
        <mxCell id="x5Ubl2-uREqJNJWsfz0u-36" value="+ efetuarTransacao(Double valor) :Boolean" style="text;strokeColor=#666666;fillColor=#f5f5f5;align=left;verticalAlign=top;spacingLeft=4;spacingRight=4;overflow=hidden;rotatable=0;points=[[0,0.5],[1,0.5]];portConstraint=eastwest;whiteSpace=wrap;html=1;strokeWidth=1;gradientColor=#b3b3b3;" vertex="1" parent="1">
          <mxGeometry x="521" y="280" width="257" height="44" as="geometry" />
        </mxCell>
        <mxCell id="x5Ubl2-uREqJNJWsfz0u-39" value="Cliente" style="swimlane;fontStyle=1;align=center;verticalAlign=top;childLayout=stackLayout;horizontal=1;startSize=26;horizontalStack=0;resizeParent=1;resizeParentMax=0;resizeLast=0;collapsible=1;marginBottom=0;whiteSpace=wrap;html=1;fillColor=#dae8fc;gradientColor=#7ea6e0;strokeColor=#6c8ebf;" vertex="1" parent="1">
          <mxGeometry x="36" y="201" width="160" height="190" as="geometry" />
        </mxCell>
        <mxCell id="x5Ubl2-uREqJNJWsfz0u-40" value="- nome : String" style="text;strokeColor=#666666;fillColor=#f5f5f5;align=left;verticalAlign=top;spacingLeft=4;spacingRight=4;overflow=hidden;rotatable=0;points=[[0,0.5],[1,0.5]];portConstraint=eastwest;whiteSpace=wrap;html=1;gradientColor=#b3b3b3;" vertex="1" parent="x5Ubl2-uREqJNJWsfz0u-39">
          <mxGeometry y="26" width="160" height="26" as="geometry" />
        </mxCell>
        <mxCell id="x5Ubl2-uREqJNJWsfz0u-43" value="- email: String" style="text;strokeColor=#666666;fillColor=#f5f5f5;align=left;verticalAlign=top;spacingLeft=4;spacingRight=4;overflow=hidden;rotatable=0;points=[[0,0.5],[1,0.5]];portConstraint=eastwest;whiteSpace=wrap;html=1;gradientColor=#b3b3b3;" vertex="1" parent="x5Ubl2-uREqJNJWsfz0u-39">
          <mxGeometry y="52" width="160" height="26" as="geometry" />
        </mxCell>
        <mxCell id="x5Ubl2-uREqJNJWsfz0u-44" value="- cpf: String" style="text;strokeColor=#666666;fillColor=#f5f5f5;align=left;verticalAlign=top;spacingLeft=4;spacingRight=4;overflow=hidden;rotatable=0;points=[[0,0.5],[1,0.5]];portConstraint=eastwest;whiteSpace=wrap;html=1;gradientColor=#b3b3b3;" vertex="1" parent="x5Ubl2-uREqJNJWsfz0u-39">
          <mxGeometry y="78" width="160" height="26" as="geometry" />
        </mxCell>
        <mxCell id="x5Ubl2-uREqJNJWsfz0u-45" value="- contas: List&amp;lt;Conta&amp;gt;" style="text;strokeColor=#666666;fillColor=#f5f5f5;align=left;verticalAlign=top;spacingLeft=4;spacingRight=4;overflow=hidden;rotatable=0;points=[[0,0.5],[1,0.5]];portConstraint=eastwest;whiteSpace=wrap;html=1;gradientColor=#b3b3b3;" vertex="1" parent="x5Ubl2-uREqJNJWsfz0u-39">
          <mxGeometry y="104" width="160" height="26" as="geometry" />
        </mxCell>
        <mxCell id="x5Ubl2-uREqJNJWsfz0u-41" value="" style="line;strokeWidth=1;fillColor=none;align=left;verticalAlign=middle;spacingTop=-1;spacingLeft=3;spacingRight=3;rotatable=0;labelPosition=right;points=[];portConstraint=eastwest;strokeColor=inherit;" vertex="1" parent="x5Ubl2-uREqJNJWsfz0u-39">
          <mxGeometry y="130" width="160" height="8" as="geometry" />
        </mxCell>
        <mxCell id="x5Ubl2-uREqJNJWsfz0u-42" value="+ criarConta():void&lt;div&gt;&lt;br&gt;&lt;/div&gt;" style="text;strokeColor=#666666;fillColor=#f5f5f5;align=left;verticalAlign=top;spacingLeft=4;spacingRight=4;overflow=hidden;rotatable=0;points=[[0,0.5],[1,0.5]];portConstraint=eastwest;whiteSpace=wrap;html=1;gradientColor=#b3b3b3;" vertex="1" parent="x5Ubl2-uREqJNJWsfz0u-39">
          <mxGeometry y="138" width="160" height="26" as="geometry" />
        </mxCell>
        <mxCell id="x5Ubl2-uREqJNJWsfz0u-46" value="&lt;div&gt;&lt;div&gt;+ encerrarConta():&amp;nbsp; void&lt;span style=&quot;white-space: pre;&quot;&gt;&#x9;&lt;/span&gt;&lt;/div&gt;&lt;div&gt;&lt;br&gt;&lt;/div&gt;&lt;/div&gt;" style="text;strokeColor=#666666;fillColor=#f5f5f5;align=left;verticalAlign=top;spacingLeft=4;spacingRight=4;overflow=hidden;rotatable=0;points=[[0,0.5],[1,0.5]];portConstraint=eastwest;whiteSpace=wrap;html=1;gradientColor=#b3b3b3;" vertex="1" parent="x5Ubl2-uREqJNJWsfz0u-39">
          <mxGeometry y="164" width="160" height="26" as="geometry" />
        </mxCell>
        <mxCell id="x5Ubl2-uREqJNJWsfz0u-57" value="" style="endArrow=none;html=1;rounded=0;entryX=0;entryY=0.25;entryDx=0;entryDy=0;" edge="1" parent="1" source="x5Ubl2-uREqJNJWsfz0u-44" target="x5Ubl2-uREqJNJWsfz0u-10">
          <mxGeometry width="50" height="50" relative="1" as="geometry">
            <mxPoint x="201" y="285" as="sourcePoint" />
            <mxPoint x="251" y="235" as="targetPoint" />
          </mxGeometry>
        </mxCell>
        <mxCell id="x5Ubl2-uREqJNJWsfz0u-58" value="" style="endArrow=none;html=1;rounded=0;entryX=0;entryY=0.25;entryDx=0;entryDy=0;" edge="1" parent="1">
          <mxGeometry width="50" height="50" relative="1" as="geometry">
            <mxPoint x="454" y="282" as="sourcePoint" />
            <mxPoint x="521" y="276" as="targetPoint" />
          </mxGeometry>
        </mxCell>
      </root>
    </mxGraphModel>
  </diagram>
</mxfile>
